<?xml version="1.0" encoding="UTF-8"?>
<svg width="125px" height="99px" viewBox="0 0 125 99" version="1.1" xmlns="http://www.w3.org/2000/svg" xmlns:xlink="http://www.w3.org/1999/xlink">
    <!-- Generator: Sketch 52.3 (67297) - http://www.bohemiancoding.com/sketch -->
    <title>Group 22</title>
    <desc>Created with Sketch.</desc>
    <g id="Welcome" stroke="none" stroke-width="1" fill="none" fill-rule="evenodd">
        <g id="Desktop-3.1-Get-Started" transform="translate(-729.000000, -1495.000000)">
            <g id="Group-22" transform="translate(729.000000, 1495.000000)">
                <g id="floor" transform="translate(0.000000, 53.000000)">
                    <path d="M66.1275175,0.971622222 C64.0783492,0.418344444 60.9670329,0.273955556 58.799992,0.971622222 L1.51135881,19.1518444 C-0.504131682,21.1400667 -0.504131682,24.3920111 1.51135881,26.3802333 L58.799992,44.5604556 C61.3064021,45.5916222 63.9423424,45.6631778 66.1275175,44.5604556 L123.416151,26.3802333 C125.431641,24.3920111 125.431641,21.1400667 123.416151,19.1518444 L66.1275175,0.971622222 Z" id="Fill-1" fill="#ECE8F4"></path>
                    <path d="M66.1661442,42.0605155 C63.9795487,43.1689039 61.3418951,43.098265 58.8338558,42.0605155 L1.50798489,23.7868764 C0.738075168,23.0239763 0.266278636,22.7137354 0.0848184319,21.7222222 C-0.209406328,23.3276516 0.261094059,25.0473875 1.50798489,26.2829259 L58.8338558,44.556565 C61.3418951,45.5930302 63.9795487,45.6649535 66.1661442,44.556565 L123.492015,26.2829259 C124.738906,25.0473875 125.209406,23.3276516 124.915182,21.7222222 C124.733721,22.7137354 124.261925,23.0239763 123.492015,23.7868764 L66.1661442,42.0605155 Z" id="Fill-4" fill="#98B3C5"></path>
                </g>
                <g id="Group-45" transform="translate(18.000000, 1.000000)" fill="#DBCB32">
                    <path d="M2.00008887,14 C0.89553742,14 0,13.2166121 0,12.2499222 L0,1.75007776 C0,0.783387887 0.89553742,0 2.00008887,0 L13.9999111,0 C15.1044626,0 16,0.783387887 16,1.75007776 C16,2.71676763 15.1044626,3.50015552 13.9999111,3.50015552 L4.00017773,3.50015552 L4.00017773,12.2501296 C4.00017773,13.2166121 3.10464031,14 2.00008887,14 Z" id="Path"></path>
                    <path d="M87.0001481,14 C85.8953596,14 85.0000592,13.2166121 85.0000592,12.2499222 L85.0000592,3.50015552 L75.0000889,3.50015552 C73.8953004,3.50015552 73,2.71676763 73,1.75007776 C73,0.783387887 73.8953004,0 75.0000889,0 L86.9999111,0 C88.1046995,0 89,0.783387887 89,1.75007776 L89,12.2499222 C89.0002369,13.2166121 88.1049365,14 87.0001481,14 Z" id="Path"></path>
                    <path d="M13.9997038,78 L2.00005924,78 C0.895524157,78 0,77.2166121 0,76.2499222 L0,65.7500778 C0,64.7833879 0.895524157,64 2.00005924,64 C3.10459433,64 4.00011849,64.7833879 4.00011849,65.7500778 L4.00011849,74.5000518 L13.9999408,74.5000518 C15.1044758,74.5000518 16,75.2834397 16,76.2501296 C16,77.2168195 15.1042389,78 13.9997038,78 Z" id="Path"></path>
                    <path d="M86.9997038,78 L75.0000592,78 C73.8952872,78 73,77.2166237 73,76.2499482 C73,75.2832726 73.8952872,74.4998963 75.0000592,74.4998963 L84.9998815,74.4998963 L84.9998815,65.7500518 C84.9998815,64.7833763 85.8951687,64 86.9999408,64 C88.1047128,64 89,64.7833763 89,65.7500518 L89,76.2497408 C88.999763,77.2166237 88.1044758,78 86.9997038,78 Z" id="Path"></path>
                </g>
                <g id="Group-50" transform="translate(49.500000, 52.500000) scale(-1, 1) translate(-49.500000, -52.500000) translate(15.000000, 21.000000)" fill="#000000">
                    <path d="M6.47925173,0.0682737557 L6.20383532,0.0682737557 C5.83480795,0.0682737557 5.46483858,0.100243547 5.10428918,0.163239373 C4.46361339,0.275192629 4.0347692,0.886275733 4.14651361,1.52803096 C4.2463653,2.10124579 4.74350428,2.50529205 5.30517007,2.50529205 C5.37228736,2.50529205 5.44034665,2.49951153 5.50875919,2.48759659 C5.7362515,2.4478408 5.96998453,2.42766798 6.20383532,2.42766798 L6.47925173,2.42766798 C7.12958299,2.42766798 7.65674813,1.89939961 7.65674813,1.24797087 C7.65674813,0.596542122 7.12958299,0.0682737557 6.47925173,0.0682737557 Z" id="Path"></path>
                    <path d="M1.01190044,5.27734432 C1.17533694,5.35544027 1.34784016,5.39236479 1.5175174,5.39236479 C1.95743005,5.39236479 2.37944476,5.14415652 2.58138539,4.71993744 C2.71149875,4.44624771 2.8734045,4.1864784 3.06274592,3.94770771 C3.46721594,3.43760668 3.38231844,2.69545922 2.87305125,2.29023327 C2.36401956,1.88500731 1.62313882,1.9699455 1.21866881,2.4801645 C0.918760476,2.85837539 0.661948512,3.2704436 0.455297893,3.70504401 C0.175642498,4.29324099 0.424800737,4.99716626 1.01190044,5.27734432 Z" id="Path"></path>
                    <path d="M3.38326044,10.965018 C3.1691916,11.580348 3.49359185,12.2528933 4.10765623,12.4672443 C4.56216984,12.6259136 5.03575889,12.7326762 5.51523542,12.7844649 C5.55821404,12.7890657 5.60083941,12.7914251 5.64299378,12.7914251 C6.23656972,12.7914251 6.74701441,12.3429042 6.81224771,11.7381915 C6.88207325,11.0904198 6.41448942,10.5085932 5.76792615,10.4386372 C5.46613382,10.4060775 5.16834498,10.3388348 4.88268436,10.2391504 C4.26861999,10.0251533 3.59732929,10.349688 3.38326044,10.965018 Z" id="Path"></path>
                    <path d="M39.7613359,22.3639593 C39.1110046,22.3639593 38.5838395,22.8922277 38.5838395,23.5436564 C38.5838395,24.1950852 39.1110046,24.7233535 39.7613359,24.7233535 L40.9388323,24.7233535 C41.5891635,24.7233535 42.1163287,24.1950852 42.1163287,23.5436564 C42.1163287,22.8922277 41.5891635,22.3639593 40.9388323,22.3639593 L39.7613359,22.3639593 Z" id="Path"></path>
                    <path d="M0.0895675115,8.22068861 C0.223331103,8.68371973 0.41067078,9.13235854 0.64605231,9.55410026 C0.8618874,9.94056903 1.26223618,10.1582232 1.67483091,10.1582232 C1.86935332,10.1582232 2.06670172,10.1098556 2.24850716,10.0079297 C2.81606043,9.69000137 3.01882531,8.97121192 2.70149003,8.40259791 C2.55336098,8.137402 2.43572909,7.85533642 2.35165585,7.56454108 C2.1707924,6.93871176 1.51763515,6.5783143 0.893091055,6.75951577 C0.268546964,6.94059928 -0.0912959356,7.5948593 0.0895675115,8.22068861 Z" id="Path"></path>
                    <path d="M14.3534057,10.4622311 C13.7030744,10.4622311 13.1759093,10.9904995 13.1759093,11.6419282 C13.1759093,12.293357 13.7030744,12.8216253 14.3534057,12.8216253 L15.5309021,12.8216253 C16.1812333,12.8216253 16.7083985,12.293357 16.7083985,11.6419282 C16.7083985,10.9904995 16.1812333,10.4622311 15.5309021,10.4622311 L14.3534057,10.4622311 Z" id="Path"></path>
                    <path d="M54.5974373,24.7233535 L55.1445021,24.7233535 C55.3953088,24.7233535 55.6483528,24.7101409 55.896569,24.6839517 C56.5433678,24.6157652 57.0124824,24.0352362 56.9444231,23.3873466 C56.8763638,22.7393389 56.2968001,22.2688757 55.6502368,22.3375341 C55.4835033,22.3551116 55.3133551,22.3640773 55.1445021,22.3640773 L54.5974373,22.3640773 C53.947106,22.3640773 53.4199409,22.8923457 53.4199409,23.5437744 C53.4199409,24.1952031 53.947106,24.7233535 54.5974373,24.7233535 Z" id="Path"></path>
                    <path d="M49.6520701,22.3639593 C49.0017389,22.3639593 48.4745737,22.8922277 48.4745737,23.5436564 C48.4745737,24.1950852 49.0017389,24.7233535 49.6520701,24.7233535 L50.8295665,24.7233535 C51.4798978,24.7233535 52.0070629,24.1950852 52.0070629,23.5436564 C52.0070629,22.8922277 51.4798978,22.3639593 50.8295665,22.3639593 L49.6520701,22.3639593 Z" id="Path"></path>
                    <path d="M21.6536478,11.6418102 C21.6536478,10.9903815 21.1264827,10.4621131 20.4761514,10.4621131 L19.298655,10.4621131 C18.6483238,10.4621131 18.1211586,10.9903815 18.1211586,11.6418102 C18.1211586,12.293239 18.6483238,12.8215073 19.298655,12.8215073 L20.4761514,12.8215073 C21.1264827,12.8215073 21.6536478,12.293239 21.6536478,11.6418102 Z" id="Path"></path>
                    <path d="M58.7978024,11.4719339 C58.2402579,11.1373718 57.5168041,11.3186912 57.1825129,11.8775137 C56.8482216,12.4363362 57.0294383,13.1610242 57.5873361,13.4959402 C57.8569828,13.6577946 58.111793,13.847372 58.3447018,14.0591276 C58.5703101,14.2642769 58.853498,14.3654949 59.1358616,14.3654949 C59.4562584,14.3654949 59.7755954,14.2352564 60.0079155,13.9789082 C60.4451199,13.49653 60.4092062,12.7503716 59.927728,12.312468 C59.5802488,11.9961913 59.2000352,11.7135358 58.7978024,11.4719339 Z" id="Path"></path>
                    <path d="M60.6326951,20.1598132 C60.1082382,19.7741702 59.3715964,19.8875391 58.9866728,20.4128583 C58.8006284,20.6666111 58.5885613,20.9032584 58.3562413,21.1160757 C57.876176,21.5556309 57.8426173,22.3017893 58.2813525,22.7827518 C58.5136725,23.0373304 58.8317143,23.1666252 59.1509336,23.1666252 C59.4344747,23.1666252 59.7190756,23.0645814 59.9449194,22.8577805 C60.2914566,22.5406779 60.6078499,22.1877126 60.885268,21.8089118 C61.2699561,21.2834747 61.1569165,20.5452203 60.6326951,20.1598132 Z" id="Path"></path>
                    <path d="M11.4246189,0.0682737557 L10.2471225,0.0682737557 C9.5967912,0.0682737557 9.06962606,0.596542122 9.06962606,1.24797087 C9.06962606,1.89939961 9.5967912,2.42766798 10.2471225,2.42766798 L11.4246189,2.42766798 C12.0749501,2.42766798 12.6021153,1.89939961 12.6021153,1.24797087 C12.6021153,0.596542122 12.0749501,0.0682737557 11.4246189,0.0682737557 Z" id="Path"></path>
                    <path d="M62.2618791,17.5811133 C62.2611726,17.1095884 62.213955,16.6377095 62.121757,16.1785714 C61.9934099,15.5398834 61.3718096,15.1265175 60.7350195,15.2548686 C60.0974052,15.3835735 59.6846927,16.0055099 59.8130398,16.6441979 C59.8747406,16.951509 59.9062975,17.2680217 59.9068863,17.5847704 C59.907946,18.2357272 60.4348757,18.76258 61.0843827,18.76258 C61.0849714,18.76258 61.0856779,18.76258 61.0862667,18.76258 C61.7365979,18.7616362 62.2629388,18.23266 62.2618791,17.5811133 Z" id="Path"></path>
                    <path d="M44.706703,22.3639593 C44.0563717,22.3639593 43.5292066,22.8922277 43.5292066,23.5436564 C43.5292066,24.1950852 44.0563717,24.7233535 44.706703,24.7233535 L45.8841994,24.7233535 C46.5345307,24.7233535 47.0616958,24.1950852 47.0616958,23.5436564 C47.0616958,22.8922277 46.5345307,22.3639593 45.8841994,22.3639593 L44.706703,22.3639593 Z" id="Path"></path>
                    <path d="M8.23054212,11.6418102 C8.23054212,12.293239 8.75770726,12.8215073 9.40803852,12.8215073 L10.5855349,12.8215073 C11.2358662,12.8215073 11.7630313,12.293239 11.7630313,11.6418102 C11.7630313,10.9903815 11.2358662,10.4621131 10.5855349,10.4621131 L9.40803852,10.4621131 C8.75770726,10.4622311 8.23054212,10.9903815 8.23054212,11.6418102 Z" id="Path"></path>
                    <path d="M29.6608589,10.4622311 C29.0105276,10.4622311 28.4833625,10.9904995 28.4833625,11.6419282 C28.4833625,12.293357 29.0105276,12.8216253 29.6608589,12.8216253 L30.8383553,12.8216253 C31.4886865,12.8216253 32.0158517,12.293357 32.0158517,11.6419282 C32.0158517,10.9904995 31.4886865,10.4622311 30.8383553,10.4622311 L29.6608589,10.4622311 Z" id="Path"></path>
                    <path d="M36.961101,11.6418102 C36.961101,10.9903815 36.4339359,10.4621131 35.7836046,10.4621131 L34.6061082,10.4621131 C33.955777,10.4621131 33.4286118,10.9903815 33.4286118,11.6418102 C33.4286118,12.293239 33.955777,12.8215073 34.6061082,12.8215073 L35.7836046,12.8215073 C36.4339359,12.8215073 36.961101,12.293239 36.961101,11.6418102 Z" id="Path"></path>
                    <path d="M41.7888363,11.6418102 C41.7888363,10.9903815 41.2616711,10.4621131 40.6113399,10.4621131 L39.4338435,10.4621131 C38.7835122,10.4621131 38.2563471,10.9903815 38.2563471,11.6418102 C38.2563471,12.293239 38.7835122,12.8215073 39.4338435,12.8215073 L40.6113399,12.8215073 C41.2616711,12.8215073 41.7888363,12.293239 41.7888363,11.6418102 Z" id="Path"></path>
                    <path d="M43.887663,10.4622311 C43.2373317,10.4622311 42.7101666,10.9904995 42.7101666,11.6419282 C42.7101666,12.293357 43.2373317,12.8216253 43.887663,12.8216253 L45.0651594,12.8216253 C45.7154906,12.8216253 46.2426558,12.293357 46.2426558,11.6419282 C46.2426558,10.9904995 45.7154906,10.4622311 45.0651594,10.4622311 L43.887663,10.4622311 Z" id="Path"></path>
                    <path d="M51.1879052,11.6418102 C51.1879052,10.9903815 50.66074,10.4621131 50.0104088,10.4621131 L48.8329124,10.4621131 C48.1825811,10.4621131 47.655416,10.9903815 47.655416,11.6418102 C47.655416,12.293239 48.1825811,12.8215073 48.8329124,12.8215073 L50.0104088,12.8215073 C50.66074,12.8215073 51.1879052,12.293239 51.1879052,11.6418102 Z" id="Path"></path>
                    <path d="M56.0156404,11.6418102 C56.0156404,10.9903815 55.4884753,10.4621131 54.838144,10.4621131 L53.6606476,10.4621131 C53.0103163,10.4621131 52.4831512,10.9903815 52.4831512,11.6418102 C52.4831512,12.293239 53.0103163,12.8215073 53.6606476,12.8215073 L54.838144,12.8215073 C55.4884753,12.8215073 56.0156404,12.293239 56.0156404,11.6418102 Z" id="Path"></path>
                    <path d="M23.5379953,11.6418102 C23.5379953,12.293239 24.0651605,12.8215073 24.7154917,12.8215073 L25.8929881,12.8215073 C26.5433194,12.8215073 27.0704845,12.293239 27.0704845,11.6418102 C27.0704845,10.9903815 26.5433194,10.4621131 25.8929881,10.4621131 L24.7154917,10.4621131 C24.0651605,10.4622311 23.5379953,10.9903815 23.5379953,11.6418102 Z" id="Path"></path>
                </g>
                <g id="Group-47" transform="translate(46.000000, 26.000000)">
                    <path d="M24.5748228,0.699403959 L24.8420685,0.699403959 C24.7600213,0.699219993 24.6711624,0.699403959 24.5748228,0.699403959 Z" id="Path" fill="#DBCB32" fill-rule="nonzero" transform="translate(24.708446, 0.699363) rotate(-90.000000) translate(-24.708446, -0.699363) "></path>
                    <rect id="Rectangle" fill="#793A78" fill-rule="nonzero" x="0" y="14" width="50" height="32" rx="5"></rect>
                    <g id="Group-44" transform="translate(23.000000, 9.000000)">
                        <g id="Group-46">
                            <path d="M23,11.8461538 C23,18.4615385 11.5741935,32 11.5741935,32 C11.5741935,32 0,18.4615385 0,11.8461538 C0,5.23076923 5.19354839,0 11.4258065,0 C17.6580645,0 23,5.38461538 23,11.8461538 Z" id="Path" fill="#4EA098"></path>
                            <ellipse id="Oval" fill="#FFFFFF" cx="11.5" cy="11.6666667" rx="5.22727273" ry="5.33333333"></ellipse>
                        </g>
                    </g>
                    <path d="M21.3656051,30.7046092 L6.9343949,30.7046092 C6.41528662,30.7046092 6,30.3258072 6,29.8523046 C6,29.378802 6.41528662,29 6.9343949,29 L21.3656051,29 C21.8847134,29 22.3,29.378802 22.3,29.8523046 C22.3,30.3258072 21.8847134,30.7046092 21.3656051,30.7046092 Z" id="Path" fill="#FFFFFF"></path>
                    <path d="M21.3656051,26.7046092 L6.9343949,26.7046092 C6.41528662,26.7046092 6,26.3258072 6,25.8523046 C6,25.378802 6.41528662,25 6.9343949,25 L21.3656051,25 C21.8847134,25 22.3,25.378802 22.3,25.8523046 C22.3,26.3258072 21.8847134,26.7046092 21.3656051,26.7046092 Z" id="Path" fill="#FFFFFF"></path>
                    <path d="M13.9942675,34.7046092 L6.9343949,34.7046092 C6.41528662,34.7046092 6,34.3258072 6,33.8523046 C6,33.378802 6.41528662,33 6.9343949,33 L13.9942675,33 C14.4095541,33 14.8248408,33.2841015 14.9286624,33.8523046 C14.9286624,34.3258072 14.5133758,34.7046092 13.9942675,34.7046092 Z" id="Path" fill="#FFFFFF"></path>
                </g>
                <path d="M65.3597397,8.5819022 C64.9181953,8.5819022 64.4775353,8.62627578 64.0448337,8.71472521 C63.718539,7.0693286 62.6636077,5.66575311 61.1824594,4.90604153 C59.7016059,4.14632987 57.9575354,4.11446425 56.4501539,4.81937899 C55.0860237,1.02290548 50.9340924,-0.937275664 47.1765445,0.440985979 C43.4189967,1.81924762 41.4789135,6.01448787 42.8430437,9.81066359 C39.5515049,9.91579027 36.9514633,12.6684421 37.0006875,15.9952702 C37.0502065,19.3223962 39.7310112,21.9946395 43.0243186,22 L65.3597397,22 C69.0267975,22 72,18.996295 72,15.2909511 C72,11.5856073 69.0267975,8.5819022 65.3597397,8.5819022 Z" id="Path" fill="#9ECCC7"></path>
            </g>
        </g>
    </g>
</svg>
