<?xml version="1.0" encoding="UTF-8"?>
<svg width="125px" height="96px" viewBox="0 0 125 96" version="1.1" xmlns="http://www.w3.org/2000/svg" xmlns:xlink="http://www.w3.org/1999/xlink">
    <!-- Generator: Sketch 51.2 (57519) - http://www.bohemiancoding.com/sketch -->
    <title>icon_indexD</title>
    <desc>Created with Sketch.</desc>
    <defs></defs>
    <g id="Welcome" stroke="none" stroke-width="1" fill="none" fill-rule="evenodd">
        <g id="Desktop-2.1-products" transform="translate(-964.000000, -714.000000)">
            <g id="icon_indexD" transform="translate(964.000000, 714.000000)">
                <g id="floor" transform="translate(0.000000, 50.000000)" fill-rule="evenodd">
                    <path d="M66.1275175,0.971622222 C64.0783492,0.418344444 60.9670329,0.273955556 58.799992,0.971622222 L1.51135881,19.1518444 C-0.504131682,21.1400667 -0.504131682,24.3920111 1.51135881,26.3802333 L58.799992,44.5604556 C61.3064021,45.5916222 63.9423424,45.6631778 66.1275175,44.5604556 L123.416151,26.3802333 C125.431641,24.3920111 125.431641,21.1400667 123.416151,19.1518444 L66.1275175,0.971622222 Z" id="Fill-1" fill="#ECE8F4"></path>
                    <path d="M66.1661442,42.0605155 C63.9795487,43.1689039 61.3418951,43.098265 58.8338558,42.0605155 L1.50798489,23.7868764 C0.738075168,23.0239763 0.266278636,22.7137354 0.0848184319,21.7222222 C-0.209406328,23.3276516 0.261094059,25.0473875 1.50798489,26.2829259 L58.8338558,44.556565 C61.3418951,45.5930302 63.9795487,45.6649535 66.1661442,44.556565 L123.492015,26.2829259 C124.738906,25.0473875 125.209406,23.3276516 124.915182,21.7222222 C124.733721,22.7137354 124.261925,23.0239763 123.492015,23.7868764 L66.1661442,42.0605155 Z" id="Fill-4" fill="#98B3C5"></path>
                </g>
                <g id="icon-object" transform="translate(7.000000, 0.000000)">
                    <path d="M58.1495327,61.8037975 L22.3514643,61.8037975 C21.5927384,61.8037975 20.9719626,61.1266348 20.9719626,60.2989915 L20.9719626,43.6708861" id="Stroke-3" stroke="#DBCB32" stroke-width="3"></path>
                    <path d="M80.1375909,40.1215149 L69.7277301,40.1215149 C69.4666888,40.1215149 69.2531096,39.5130039 69.2531096,38.7692682 L69.2531096,26.6750435 L55.2615783,26.6750435" id="Stroke-3" stroke="#DBCB32" stroke-width="3" transform="translate(67.699585, 33.398279) rotate(-90.000000) translate(-67.699585, -33.398279) "></path>
                    <g id="Group-2" stroke-width="1" fill-rule="evenodd" transform="translate(0.000000, 12.341772)">
                        <path d="M35.9383178,13.9792405 L31.8392523,18.061519 C31.7439252,18.2513924 31.4579439,18.3463291 31.2672897,18.3463291 C31.0766355,18.3463291 30.8859813,18.2513924 30.6953271,18.061519 L29.3607477,16.7324051 C29.0747664,16.4475949 29.0747664,15.8779747 29.3607477,15.5931646 C29.646729,15.3083544 30.2186916,15.3083544 30.5046729,15.5931646 L31.2672897,16.3526582 L34.7943925,12.84 C35.0803738,12.5551899 35.6523364,12.5551899 35.9383178,12.84 C36.2242991,13.1248101 36.2242991,13.6944304 35.9383178,13.9792405 M32.6018692,8.47291139 C28.9794393,8.47291139 25.928972,11.4159494 25.928972,15.118481 C25.928972,18.8210127 28.8841121,21.7640506 32.6018692,21.7640506 C36.3196262,21.7640506 39.2747664,18.8210127 39.2747664,15.118481 C39.2747664,11.5108861 36.3196262,8.47291139 32.6018692,8.47291139" id="Fill-3" fill="#4EA098"></path>
                        <path d="M15.2524318,25.2506127 C15.2524318,25.3819716 15.1864822,25.5133306 15.0545831,25.6446896 C14.9886335,25.7760485 14.7907848,25.841728 14.6588857,25.841728 L5.35999658,25.841728 C5.22809744,25.841728 5.09619831,25.7760485 4.96429917,25.6446896 C4.83240004,25.5790101 4.76645047,25.3819716 4.76645047,25.2506127 L4.76645047,24.5938178 C4.76645047,23.7399845 5.22809744,23.0175102 5.95354269,22.6234333 L7.86608016,21.638241 C7.86608016,21.638241 7.93202973,21.5725615 7.93202973,21.5068821 L7.93202973,20.9157667 C7.60228189,20.4560103 7.33848362,19.9962539 7.20658448,19.4708181 C7.00873578,19.2737796 6.87683664,18.9453822 6.87683664,18.6169848 L6.87683664,17.7631515 C6.87683664,17.566113 6.94278621,17.3033951 7.07468535,17.1063566 L7.07468535,16.1211644 C7.00873578,15.5957285 7.20658448,15.0046131 7.60228189,14.5448567 C8.195828,13.9537414 9.11912195,13.625344 9.97646634,13.6910234 C10.8338107,13.625344 11.6911551,13.9537414 12.3506508,14.5448567 C12.7463482,14.9389336 12.9441969,15.530049 12.8782473,16.1211644 L12.8782473,17.1063566 C13.0101465,17.3033951 13.076096,17.5004335 13.076096,17.7631515 L13.076096,18.6169848 C13.076096,19.0110617 12.8122978,19.4051386 12.4825499,19.602177 C12.3506508,20.0619334 12.1528021,20.4560103 11.8890038,20.7844077 C11.8890038,20.8500872 11.8230542,20.8500872 11.8230542,20.9157667 L11.8230542,21.5068821 C11.8230542,21.5725615 11.8890038,21.638241 11.9549534,21.638241 L13.99939,22.6234333 C14.7248352,22.9518307 15.2524318,23.7399845 15.2524318,24.5938178 L15.2524318,25.2506127 Z M15.2026999,29.4238095 L5.13249671,29.4238095 C4.77025918,29.4238095 4.48046916,29.1352063 4.48046916,28.7744522 C4.48046916,28.4136982 4.77025918,28.1250949 5.13249671,28.1250949 L15.2026999,28.1250949 C15.5649375,28.1250949 15.8547275,28.4136982 15.8547275,28.7744522 C15.8547275,29.1352063 15.5649375,29.4238095 15.2026999,29.4238095 Z M10.1313746,32.0212387 L5.20494421,32.0212387 C4.84270669,32.0212387 4.55291666,31.7326355 4.55291666,31.3718814 C4.55291666,31.0111274 4.84270669,30.7225241 5.20494421,30.7225241 L10.1313746,30.7225241 C10.4211646,30.7225241 10.7109546,30.9389765 10.7834021,31.3718814 C10.7834021,31.7326355 10.4936121,32.0212387 10.1313746,32.0212387 Z M39.2748617,33.2516772 L34.3178523,37.1440823 C33.3645813,37.9035759 32.0300019,37.9035759 31.0767308,37.1440823 L26.1197215,33.2516772 C20.3047682,28.8845886 16.8729925,22.0491456 16.7776654,14.8339557 L16.7776654,8.4731962 L2.4786,8.4731962 C1.14402056,8.4731962 9.53271028e-05,9.5175 9.53271028e-05,10.9415506 L9.53271028e-05,36.8592722 C9.53271028e-05,38.1883861 1.04869346,39.3276266 2.4786,39.3276266 L44.4225252,39.3276266 C45.7571047,39.3276266 46.9010299,38.2833228 46.9010299,36.8592722 L46.9010299,23.1883861 C45.2804692,27.1757278 42.6113103,30.5934494 39.2748617,33.2516772 Z" id="Fill-5" fill="#9ECCC7"></path>
                        <path d="M32.6018692,23.567943 C28.0261682,23.567943 24.2130841,19.8654114 24.2130841,15.2135127 C24.2130841,10.5616139 28.0261682,6.85908228 32.6018692,6.85908228 C37.1775701,6.76414557 40.9906542,10.5616139 40.8953271,15.2135127 C40.9906542,19.7704747 37.1775701,23.567943 32.6018692,23.567943 M46.8056075,6.47933544 L33.8411215,0.213512658 C33.1738318,-0.0712974684 32.5065421,-0.0712974684 31.8392523,0.213512658 L18.8747664,6.47933544 C18.6841121,6.57427215 18.4934579,6.76414557 18.4934579,7.0489557 L18.4934579,14.7388291 C18.588785,21.4793354 21.7345794,27.8400949 27.1682243,31.9223734 L32.1252336,35.8147785 C32.411215,36.0995886 32.8878505,36.0995886 33.2691589,35.8147785 L38.2261682,31.9223734 C43.564486,27.8400949 47.0915888,21.4793354 47.1869159,14.7388291 L47.1869159,7.0489557 C47.1869159,6.76414557 46.9962617,6.57427215 46.8056075,6.47933544" id="Fill-8" fill="#98B3C5"></path>
                    </g>
                    <g id="Group-2" stroke-width="1" fill-rule="evenodd" transform="translate(54.336449, 35.126582)">
                        <path d="M35.9383178,13.9792405 L31.8392523,18.061519 C31.7439252,18.2513924 31.4579439,18.3463291 31.2672897,18.3463291 C31.0766355,18.3463291 30.8859813,18.2513924 30.6953271,18.061519 L29.3607477,16.7324051 C29.0747664,16.4475949 29.0747664,15.8779747 29.3607477,15.5931646 C29.646729,15.3083544 30.2186916,15.3083544 30.5046729,15.5931646 L31.2672897,16.3526582 L34.7943925,12.84 C35.0803738,12.5551899 35.6523364,12.5551899 35.9383178,12.84 C36.2242991,13.1248101 36.2242991,13.6944304 35.9383178,13.9792405 M32.6018692,8.47291139 C28.9794393,8.47291139 25.928972,11.4159494 25.928972,15.118481 C25.928972,18.8210127 28.8841121,21.7640506 32.6018692,21.7640506 C36.3196262,21.7640506 39.2747664,18.8210127 39.2747664,15.118481 C39.2747664,11.5108861 36.3196262,8.47291139 32.6018692,8.47291139" id="Fill-3" fill="#4EA098"></path>
                        <path d="M39.2748617,33.2516772 L34.3178523,37.1440823 C33.3645813,37.9035759 32.0300019,37.9035759 31.0767308,37.1440823 L26.1197215,33.2516772 C20.3047682,28.8845886 16.8729925,22.0491456 16.7776654,14.8339557 L16.7776654,8.4731962 L2.4786,8.4731962 C1.14402056,8.4731962 9.53271028e-05,9.5175 9.53271028e-05,10.9415506 L9.53271028e-05,36.8592722 C9.53271028e-05,38.1883861 1.04869346,39.3276266 2.4786,39.3276266 L44.4225252,39.3276266 C45.7571047,39.3276266 46.9010299,38.2833228 46.9010299,36.8592722 L46.9010299,23.1883861 C45.2804692,27.1757278 42.6113103,30.5934494 39.2748617,33.2516772 Z" id="Fill-5" fill="#793A78"></path>
                        <path d="M32.6018692,23.567943 C28.0261682,23.567943 24.2130841,19.8654114 24.2130841,15.2135127 C24.2130841,10.5616139 28.0261682,6.85908228 32.6018692,6.85908228 C37.1775701,6.76414557 40.9906542,10.5616139 40.8953271,15.2135127 C40.9906542,19.7704747 37.1775701,23.567943 32.6018692,23.567943 M46.8056075,6.47933544 L33.8411215,0.213512658 C33.1738318,-0.0712974684 32.5065421,-0.0712974684 31.8392523,0.213512658 L18.8747664,6.47933544 C18.6841121,6.57427215 18.4934579,6.76414557 18.4934579,7.0489557 L18.4934579,14.7388291 C18.588785,21.4793354 21.7345794,27.8400949 27.1682243,31.9223734 L32.1252336,35.8147785 C32.411215,36.0995886 32.8878505,36.0995886 33.2691589,35.8147785 L38.2261682,31.9223734 C43.564486,27.8400949 47.0915888,21.4793354 47.1869159,14.7388291 L47.1869159,7.0489557 C47.1869159,6.76414557 46.9962617,6.57427215 46.8056075,6.47933544" id="Fill-8" fill="#98B3C5"></path>
                        <path d="M15.2524318,25.2506127 C15.2524318,25.3819716 15.1864822,25.5133306 15.0545831,25.6446896 C14.9886335,25.7760485 14.7907848,25.841728 14.6588857,25.841728 L5.35999658,25.841728 C5.22809744,25.841728 5.09619831,25.7760485 4.96429917,25.6446896 C4.83240004,25.5790101 4.76645047,25.3819716 4.76645047,25.2506127 L4.76645047,24.5938178 C4.76645047,23.7399845 5.22809744,23.0175102 5.95354269,22.6234333 L7.86608016,21.638241 C7.86608016,21.638241 7.93202973,21.5725615 7.93202973,21.5068821 L7.93202973,20.9157667 C7.60228189,20.4560103 7.33848362,19.9962539 7.20658448,19.4708181 C7.00873578,19.2737796 6.87683664,18.9453822 6.87683664,18.6169848 L6.87683664,17.7631515 C6.87683664,17.566113 6.94278621,17.3033951 7.07468535,17.1063566 L7.07468535,16.1211644 C7.00873578,15.5957285 7.20658448,15.0046131 7.60228189,14.5448567 C8.195828,13.9537414 9.11912195,13.625344 9.97646634,13.6910234 C10.8338107,13.625344 11.6911551,13.9537414 12.3506508,14.5448567 C12.7463482,14.9389336 12.9441969,15.530049 12.8782473,16.1211644 L12.8782473,17.1063566 C13.0101465,17.3033951 13.076096,17.5004335 13.076096,17.7631515 L13.076096,18.6169848 C13.076096,19.0110617 12.8122978,19.4051386 12.4825499,19.602177 C12.3506508,20.0619334 12.1528021,20.4560103 11.8890038,20.7844077 C11.8890038,20.8500872 11.8230542,20.8500872 11.8230542,20.9157667 L11.8230542,21.5068821 C11.8230542,21.5725615 11.8890038,21.638241 11.9549534,21.638241 L13.99939,22.6234333 C14.7248352,22.9518307 15.2524318,23.7399845 15.2524318,24.5938178 L15.2524318,25.2506127 Z M15.2026999,29.4238095 L5.13249671,29.4238095 C4.77025918,29.4238095 4.48046916,29.1352063 4.48046916,28.7744522 C4.48046916,28.4136982 4.77025918,28.1250949 5.13249671,28.1250949 L15.2026999,28.1250949 C15.5649375,28.1250949 15.8547275,28.4136982 15.8547275,28.7744522 C15.8547275,29.1352063 15.5649375,29.4238095 15.2026999,29.4238095 Z M10.1313746,32.0212387 L5.20494421,32.0212387 C4.84270669,32.0212387 4.55291666,31.7326355 4.55291666,31.3718814 C4.55291666,31.0111274 4.84270669,30.7225241 5.20494421,30.7225241 L10.1313746,30.7225241 C10.4211646,30.7225241 10.7109546,30.9389765 10.7834021,31.3718814 C10.7834021,31.7326355 10.4936121,32.0212387 10.1313746,32.0212387 Z" id="Path" fill="#FFFFFF"></path>
                    </g>
                    <g id="Group-2" stroke-width="1" fill-rule="evenodd" transform="translate(53.383178, 0.000000)">
                        <path d="M8.00761381,10.3116807 L2.07192491,10.3116807 C1.85841092,10.3116807 1.68759973,9.94035193 1.68759973,9.47619091 C1.68759973,9.01202989 1.85841092,8.64070107 2.07192491,8.64070107 L8.00761381,8.64070107 C8.2211278,8.64070107 8.39193899,9.01202989 8.39193899,9.47619091 C8.39193899,9.94035193 8.2211278,10.3116807 8.00761381,10.3116807 Z M8.00761381,14.1091491 L2.07192491,14.1091491 C1.85841092,14.1091491 1.68759973,13.7378203 1.68759973,13.2736593 C1.68759973,12.8094982 1.85841092,12.4381694 2.07192491,12.4381694 L8.00761381,12.4381694 C8.2211278,12.4381694 8.39193899,12.8094982 8.39193899,13.2736593 C8.39193899,13.7378203 8.2211278,14.1091491 8.00761381,14.1091491 Z M20.2279462,20.5589094 C19.6660588,21.0029211 18.8794165,21.0029211 18.3175291,20.5589094 L15.3957146,18.2833496 C11.9682015,15.7302824 10.6580084,11.7341772 10.6018196,7.51606621 L10.6018196,3.79746835 L1.46090723,3.79746835 C0.674264873,3.79746835 0,4.40798442 0,5.24050633 L0,20.3924051 C0,21.1694255 0.618076134,21.835443 1.46090723,21.835443 L26.1839526,21.835443 C26.9705949,21.835443 27.6448598,21.224927 27.6448598,20.3924051 L27.6448598,12.4001947 C26.6896512,14.7312561 25.1163665,16.7293087 23.1497607,18.2833496 L20.2279462,20.5589094 Z" id="Fill-5" fill="#000000"></path>
                        <path d="M19.8834601,0.116877441 C19.5287546,-0.038959147 19.1740491,-0.038959147 18.8193436,0.116877441 L11.9279225,3.54528237 C11.8265781,3.5972279 11.7252336,3.70111896 11.7252336,3.85695555 L11.7252336,8.06454342 C11.7759059,11.752676 13.4480889,15.2330265 16.3364051,17.4666842 L18.9713603,19.5964509 C19.1233769,19.7522875 19.376738,19.7522875 19.5794268,19.5964509 L22.214382,17.4666842 C25.052026,15.2330265 26.9268979,11.752676 26.9775701,8.06454342 L26.9775701,3.85695555 C26.9775701,3.70111896 26.8762257,3.5972279 26.7748812,3.54528237 L19.8834601,0.116877441 Z" id="Fill-8" fill="#4F586F"></path>
                    </g>
                </g>
            </g>
        </g>
    </g>
</svg>
